Coordinates
version=1
nRows=14
nColumns=63
inDegrees=yes

Units are S.I. units (second, meters, Newtons, ...)
If the header above contains a line with 'inDegrees', this indicates whether rotational values are in degrees (yes) or radians (no).

endheader
time	pelvis_tilt	pelvis_list	pelvis_rotation	pelvis_tx	pelvis_ty	pelvis_tz	hip_flexion_r	hip_adduction_r	hip_rotation_r	knee_angle_r	knee_angle_r_beta	ankle_angle_r	subtalar_angle_r	mtp_angle_r	hip_flexion_l	hip_adduction_l	hip_rotation_l	knee_angle_l	knee_angle_l_beta	ankle_angle_l	subtalar_angle_l	mtp_angle_l	L5_S1_Flex_Ext	L5_S1_Lat_Bending	L5_S1_axial_rotation	L4_L5_Flex_Ext	L4_L5_Lat_Bending	L4_L5_axial_rotation	L3_L4_Flex_Ext	L3_L4_Lat_Bending	L3_L4_axial_rotation	L2_L3_Flex_Ext	L2_L3_Lat_Bending	L2_L3_axial_rotation	L1_L2_Flex_Ext	L1_L2_Lat_Bending	L1_L2_axial_rotation	L1_T12_Flex_Ext	L1_T12_Lat_Bending	L1_T12_axial_rotation	Abs_r3	Abs_r2	Abs_r1	Abs_t1	Abs_t2	neck_flexion	neck_bending	neck_rotation	arm_flex_r	arm_add_r	arm_rot_r	elbow_flex_r	pro_sup_r	wrist_flex_r	wrist_dev_r	arm_flex_l	arm_add_l	arm_rot_l	elbow_flex_l	pro_sup_l	wrist_flex_l	wrist_dev_l
3.842105	-4.456819	5.490042	85.756887	0.332143	1.027974	0.426742	-8.325395	-1.449288	14.246506	0.637379	0.011124	29.192195	-14.702114	0.000000	-5.619740	0.044608	-8.491739	6.367255	0.111130	35.953763	11.710509	0.000000	-0.037543	-0.373570	-1.267704	-0.069721	-0.496848	-1.346935	-0.061680	-0.908298	-1.346935	-0.042908	-0.908298	-1.109241	-0.034862	-0.761783	-1.030009	-0.021452	-0.578660	-0.950778	-0.268166	-4.225896	-7.050588	0.000000	0.000000	2.460946	-0.820536	-3.030132	36.479459	11.370438	86.138365	121.281429	41.815148	-5.785651	15.041509	19.907854	-14.528440	38.349070	116.961172	72.040998	-0.077650	9.085398
3.859649	-4.323214	5.456820	85.456736	0.331807	1.027755	0.426941	-8.210735	-1.389941	14.516966	0.634698	0.011078	29.488386	-14.543895	0.000000	-5.672473	0.005043	-8.001857	6.111698	0.106669	35.847885	10.970068	0.000000	-0.036131	-0.341441	-1.314049	-0.067099	-0.454117	-1.396178	-0.059360	-0.830180	-1.396178	-0.041294	-0.830180	-1.149793	-0.033551	-0.696267	-1.067665	-0.020645	-0.528893	-0.985537	-0.258080	-3.862452	-7.308349	0.000000	0.000000	2.917341	-1.338747	-2.309293	36.334267	11.074022	85.042884	120.447374	50.011654	-6.698515	14.437193	19.291316	-14.121796	37.034902	115.354176	76.119508	2.372979	10.567441
3.877193	-4.217048	5.375023	85.113657	0.331591	1.027525	0.427123	-8.029383	-1.353653	14.913997	0.628088	0.010962	29.772302	-14.440901	0.000000	-5.689534	-0.009719	-7.540119	5.823748	0.101644	35.732512	10.238145	0.000000	-0.031376	-0.314251	-1.359100	-0.058268	-0.417954	-1.444044	-0.051548	-0.764070	-1.444044	-0.035860	-0.764070	-1.189213	-0.029136	-0.640820	-1.104269	-0.017928	-0.486775	-1.019325	-0.224116	-3.554869	-7.558909	0.000000	0.000000	3.584288	-1.788532	-1.465319	36.034975	11.044538	84.383737	119.532236	57.941511	-7.894746	13.917500	18.848908	-13.824839	35.831452	113.838991	79.319488	4.922875	12.420057
3.894737	-4.167279	5.238877	84.771485	0.331470	1.027265	0.427355	-7.778334	-1.360481	15.374757	0.619953	0.010820	30.018959	-14.397574	0.000000	-5.656323	0.023118	-7.012281	5.504513	0.096072	35.584744	9.453638	0.000000	-0.024261	-0.297127	-1.391540	-0.045056	-0.395179	-1.478511	-0.039859	-0.722436	-1.478511	-0.027728	-0.722436	-1.217597	-0.022529	-0.605902	-1.130626	-0.013863	-0.460250	-1.043655	-0.173297	-3.361165	-7.739327	0.000000	0.000000	4.460430	-2.079264	-0.625919	35.626656	11.152504	83.937078	118.601211	65.312691	-9.091487	13.526998	18.553295	-13.733494	34.956723	112.528883	81.455093	7.296381	14.283449
3.912281	-4.154016	5.041314	84.401170	0.331399	1.026960	0.427676	-7.445565	-1.396010	15.900322	0.614087	0.010718	30.192083	-14.423019	0.000000	-5.565999	0.087606	-6.416022	5.152142	0.089922	35.396255	8.564504	0.000000	-0.014296	-0.286254	-1.394252	-0.026550	-0.380718	-1.481392	-0.023487	-0.695999	-1.481392	-0.016339	-0.695999	-1.219970	-0.013275	-0.583730	-1.132829	-0.008169	-0.443408	-1.045689	-0.102117	-3.238167	-7.754409	0.000000	0.000000	5.513934	-2.237496	0.138465	35.112536	11.215352	83.414135	117.738356	71.898016	-10.015327	13.352599	18.225612	-13.866059	34.391403	111.454965	82.557569	9.195336	16.053100
3.929825	-4.155964	4.785027	84.008135	0.331289	1.026614	0.428135	-7.033923	-1.442161	16.456534	0.612262	0.010686	30.271316	-14.522217	0.000000	-5.420230	0.165037	-5.673207	4.765506	0.083174	35.140906	7.470563	0.000000	-0.002308	-0.277976	-1.357938	-0.004285	-0.369708	-1.442809	-0.003791	-0.675871	-1.442809	-0.002637	-0.675871	-1.188195	-0.002143	-0.566848	-1.103324	-0.001319	-0.430585	-1.018453	-0.016483	-3.144519	-7.552442	0.000000	0.000000	6.699829	-2.266485	0.775729	34.483531	11.091096	82.561456	116.974465	77.518433	-10.458231	13.436532	17.795061	-14.211375	34.252609	110.543430	82.667945	10.149838	17.339037
3.947368	-4.168934	4.478856	83.586677	0.331080	1.026227	0.428795	-6.546867	-1.499436	17.019928	0.615959	0.010751	30.260164	-14.689316	0.000000	-5.219652	0.255010	-4.797395	4.356974	0.076044	34.816773	6.148279	0.000000	0.010459	-0.271545	-1.275592	0.019423	-0.361155	-1.355316	0.017183	-0.660235	-1.355316	0.011953	-0.660235	-1.116143	0.009712	-0.553735	-1.036418	0.005976	-0.420623	-0.956694	0.074706	-3.071772	-7.094458	0.000000	0.000000	7.975995	-2.225782	1.155120	33.722187	10.716448	81.233185	116.273719	81.967858	-10.350213	13.650809	17.229119	-14.727192	34.556556	109.672562	81.917387	10.072206	17.852968
3.964912	-4.163795	4.143235	83.162141	0.330682	1.025812	0.429668	-6.011322	-1.541246	17.554550	0.627221	0.010947	30.168693	-14.917290	0.000000	-4.981579	0.327939	-3.808309	3.944592	0.068846	34.457243	4.662260	0.000000	0.022384	-0.261857	-1.152431	0.041570	-0.348269	-1.224458	0.036775	-0.636678	-1.224458	0.025583	-0.636678	-1.008378	0.020786	-0.533978	-0.936351	0.012790	-0.405616	-0.864324	0.159889	-2.962173	-6.409478	0.000000	0.000000	9.266472	-2.152354	1.348927	32.843256	10.069076	79.389569	115.589853	85.005853	-9.730159	13.956882	16.547708	-15.330207	35.271283	108.695702	80.617014	9.045400	17.605907
3.982456	-4.107451	3.800686	82.743478	0.330017	1.025354	0.430779	-5.455903	-1.539035	18.045348	0.642473	0.011213	30.020311	-15.182107	0.000000	-4.723263	0.352685	-2.766503	3.549282	0.061947	34.110665	3.085504	0.000000	0.031296	-0.243022	-0.991110	0.058120	-0.323219	-1.053054	0.051416	-0.590883	-1.053054	0.035768	-0.590883	-0.867221	0.029062	-0.495570	-0.805277	0.017883	-0.376441	-0.743333	0.223545	-2.749110	-5.512257	0.000000	0.000000	10.500610	-2.147418	1.421098	31.915918	9.103779	77.038828	114.883382	86.417364	-8.612016	14.392611	15.858819	-15.901963	36.360316	107.353375	79.278772	7.202390	16.517369
4.000000	-4.013735	3.472348	82.350057	0.329104	1.024830	0.432104	-4.904476	-1.503022	18.480550	0.665820	0.011621	29.844353	-15.473829	0.000000	-4.464457	0.342070	-1.649262	3.174725	0.055409	33.775616	1.403929	0.000000	0.036213	-0.218892	-0.799125	0.067251	-0.291126	-0.849071	0.059494	-0.532214	-0.849071	0.041388	-0.532214	-0.699235	0.033627	-0.446364	-0.649289	0.020692	-0.339063	-0.599344	0.258665	-2.476148	-4.444495	0.000000	0.000000	11.627402	-2.188535	1.303530	31.031470	7.805972	74.357549	114.021590	86.111344	-7.293068	14.603018	15.292106	-16.310158	37.714215	105.370777	78.978462	4.876828	14.831022
4.017544	-3.917698	3.171597	82.003982	0.328079	1.024194	0.433604	-4.376329	-1.461481	18.862361	0.695616	0.012141	29.672136	-15.783923	0.000000	-4.214136	0.323987	-0.444738	2.826264	0.049328	33.448718	-0.383212	0.000000	0.037117	-0.197231	-0.589767	0.068930	-0.262318	-0.626627	0.060979	-0.479548	-0.626627	0.042421	-0.479548	-0.516046	0.034467	-0.402194	-0.479185	0.021209	-0.305511	-0.442325	0.265122	-2.231120	-3.280106	0.000000	0.000000	12.638872	-2.209025	0.980378	30.254720	6.288014	71.391988	112.723875	85.826918	-5.666386	14.344500	15.017360	-16.517527	39.404333	102.547493	79.914977	2.203617	12.594004
4.035088	-3.926126	2.907254	81.736312	0.327238	1.023356	0.435237	-3.880838	-1.507462	19.195143	0.731846	0.012773	29.558090	-16.106024	0.000000	-3.973683	0.390795	0.869723	2.501325	0.043656	33.098918	-2.273858	0.000000	0.032327	-0.198857	-0.375189	0.060035	-0.264479	-0.398639	0.053110	-0.483500	-0.398639	0.036947	-0.483500	-0.328291	0.030019	-0.405509	-0.304841	0.018472	-0.308029	-0.281392	0.230909	-2.249507	-2.086690	0.000000	0.000000	13.625437	-2.080907	0.295843	29.528317	4.806026	67.750355	110.542438	89.126516	-3.562717	13.501824	15.157057	-16.984691	36.128357	99.887565	85.754525	-1.015653	10.642964
4.052632	-3.988841	2.650960	81.542775	0.326448	1.022259	0.436891	-3.405858	-1.595192	19.488860	0.771518	0.013466	29.498589	-16.412882	0.000000	-3.718552	0.491689	2.187288	2.214564	0.038651	32.782099	-4.137902	0.000000	0.024812	-0.215626	-0.172958	0.046078	-0.286783	-0.183768	0.040763	-0.524274	-0.183768	0.028357	-0.524274	-0.151338	0.023040	-0.439705	-0.140528	0.014178	-0.334005	-0.129719	0.177229	-2.439207	-0.961941	0.000000	0.000000	14.657691	-1.813435	-0.701135	28.923155	3.524270	64.106408	107.231363	91.144703	-1.405969	12.569288	15.617971	-16.837265	38.075560	95.028760	89.233645	-4.319967	7.917360
4.070175	-4.123954	2.381850	81.418831	0.325708	1.020782	0.438415	-2.939913	-1.744332	19.779150	0.813583	0.014200	29.530834	-16.729386	0.000000	-3.446649	0.650313	3.595249	1.937019	0.033807	32.481526	-6.047413	0.000000	0.018459	-0.249199	0.019337	0.034280	-0.331435	0.020545	0.030326	-0.605903	0.020545	0.021097	-0.605903	0.016920	0.017141	-0.508167	0.015711	0.010548	-0.386010	0.014503	0.131851	-2.818993	0.107545	0.000000	0.000000	15.750995	-1.479105	-2.032406	28.421896	2.611763	61.201643	102.609820	92.158165	0.448110	11.440295	16.442830	-15.978918	44.978480	88.301201	90.594945	-6.947999	4.485596
